<svg width="1788" height="440" viewBox="0 0 1788 440" fill="none" xmlns="http://www.w3.org/2000/svg">
<path d="M252.16 129.57L208.95 149.04C204.69 150.96 202.45 155.76 203.84 160.23C208.41 175.01 222.99 185.38 239.68 183.36C254.12 181.61 266.03 170.22 268.33 155.86C269.67 147.51 267.88 139.63 263.96 133.19C261.52 129.18 256.44 127.64 252.16 129.57Z" fill="#5159A7"/>
<path d="M541.06 122.76L400.46 85.4L413.72 25.76C414.14 23.88 414.26 22.04 414.13 20.27C414.76 7.14998 401.61 -3.07002 388.65 1.82998L263.6 49.04C262.71 49.35 261.96 49.66 261.39 49.97C246.71 55.27 215.3 65.67 179.98 84.3C112.37 119.98 123.82 171.2 123.82 171.2C123.82 171.2 119.95 223.54 192.04 248.99C204.54 252.22 222.23 260.01 236.69 269.06H236.68C236.68 269.06 236.75 269.1 236.89 269.19C237.78 269.75 238.61 270.33 239.47 270.89C252.8 279.96 310.68 323.01 328.29 397.74L334.62 422.89L334.63 422.87C337.42 432.59 346.36 439.71 356.98 439.71C364.9 439.71 371.89 435.74 376.09 429.69V429.71L499.14 269.01H499.13C506.75 259.71 504.39 244.94 492.77 239.06L432.21 208.41L543.66 160.5C551.66 157.06 555.32 149.65 555.02 142.42C555.62 134.06 550.81 125.35 541.06 122.76ZM251.21 231.44C212.52 231.44 181.15 200.07 181.15 161.38C181.15 122.69 212.52 91.32 251.21 91.32C289.9 91.32 321.27 122.69 321.27 161.38C321.27 200.07 289.9 231.44 251.21 231.44Z" fill="#5159A7"/>
<path d="M41.69 249.7C41.94 249.64 42.16 249.57 42.42 249.52C43.65 249.24 44.97 249.01 46.26 248.76C47.19 248.58 48.09 248.39 49.05 248.23C50.22 248.04 51.45 247.88 52.67 247.71C53.85 247.55 55.02 247.38 56.24 247.25C57.43 247.12 58.67 247.02 59.91 246.92C61.26 246.81 62.61 246.7 64.01 246.62C65.25 246.55 66.53 246.51 67.81 246.47C69.31 246.42 70.83 246.39 72.38 246.39C73.68 246.39 75.01 246.41 76.35 246.43C78 246.46 79.68 246.53 81.39 246.61C82.75 246.68 84.13 246.75 85.54 246.85C87.34 246.98 89.18 247.14 91.05 247.33C92.48 247.47 93.9 247.61 95.37 247.78C97.33 248.01 99.36 248.3 101.4 248.6C102.88 248.81 104.34 249.02 105.86 249.27C108.04 249.63 110.29 250.06 112.55 250.49C114.03 250.77 115.48 251.03 117 251.35C119.56 251.88 122.22 252.52 124.89 253.15C126.21 253.46 127.48 253.73 128.82 254.07C132.88 255.09 137.04 256.22 141.34 257.48C138.75 256.5 136.31 255.39 133.97 254.19C133.76 254.08 133.55 253.99 133.34 253.88C131.12 252.72 129.03 251.45 127.02 250.12C126.75 249.94 126.48 249.77 126.21 249.59C124.27 248.26 122.43 246.84 120.69 245.36C120.43 245.14 120.17 244.92 119.92 244.7C118.2 243.2 116.56 241.63 115.02 240C114.81 239.78 114.61 239.56 114.41 239.34C112.86 237.66 111.39 235.93 110.02 234.14C109.9 233.98 109.78 233.81 109.66 233.65C108.24 231.77 106.9 229.84 105.66 227.87C105.65 227.85 105.64 227.83 105.62 227.81C103.01 223.64 100.79 219.29 98.91 214.85C96.1 208.25 94.04 201.49 92.52 194.91C90.53 186.26 89.49 177.92 88.98 170.72C88.97 170.6 88.96 170.47 88.95 170.35C88.77 167.65 88.66 165.12 88.6 162.79C88.59 162.54 88.59 162.29 88.58 162.04C88.56 160.94 88.54 159.88 88.54 158.88C88.53 153.03 82.62 149.14 77.14 151.17C73.99 152.34 71 153.61 68.1 154.94C67.83 155.06 67.55 155.18 67.29 155.3C64.55 156.59 61.94 157.96 59.42 159.38C59.06 159.58 58.69 159.78 58.33 159.99C55.9 161.4 53.58 162.87 51.34 164.39C50.96 164.65 50.59 164.9 50.22 165.16C48.04 166.69 45.94 168.26 43.94 169.89C43.6 170.16 43.27 170.44 42.94 170.72C40.95 172.37 39.04 174.07 37.22 175.81C36.96 176.06 36.72 176.31 36.46 176.55C34.61 178.35 32.84 180.19 31.17 182.07C31.04 182.22 30.92 182.36 30.79 182.51C29.09 184.44 27.48 186.4 25.95 188.39C25.89 188.47 25.83 188.54 25.77 188.61C24.25 190.61 22.83 192.63 21.48 194.67C21.33 194.89 21.18 195.1 21.04 195.32C19.75 197.29 18.55 199.28 17.4 201.27C17.24 201.55 17.07 201.83 16.91 202.12C15.8 204.09 14.76 206.07 13.78 208.05C13.64 208.34 13.5 208.62 13.36 208.9C12.39 210.9 11.48 212.9 10.64 214.89C10.54 215.12 10.45 215.35 10.35 215.59C9.50003 217.64 8.70003 219.68 7.96003 221.7C7.92003 221.82 7.87003 221.95 7.83003 222.07C4.71003 230.77 2.68003 239.12 1.36003 246.5C0.930033 248.91 0.570031 251.23 0.280031 253.41C-0.669969 260.52 7.16003 265.31 13.17 261.39C14.68 260.41 16.38 259.42 18.17 258.44C19.41 257.76 20.72 257.09 22.1 256.43C22.12 256.42 22.13 256.41 22.15 256.41C27.55 253.85 34.02 251.49 41.69 249.7Z" fill="#5159A7"/>
<path d="M1413.12 51.31V314.7C1436.17 314.7 1454.85 296.02 1454.85 272.97V46.34H1413.12V51.31Z" fill="#5159A7"/>
<path d="M1509.49 118.36V314.7C1532.54 314.7 1551.22 296.02 1551.22 272.97V113.38H1509.49V118.36Z" fill="#5159A7"/>
<path d="M1530.89 39C1523.49 38.99 1516.76 41.89 1511.96 46.7C1507.15 51.5 1504.25 58.23 1504.26 65.63C1504.25 73.03 1507.15 79.76 1511.96 84.56C1516.76 89.37 1523.49 92.27 1530.89 92.26C1538.02 92.26 1544.56 89.32 1549.24 84.52C1553.93 79.73 1556.82 73.03 1556.81 65.63C1556.82 58.23 1553.93 51.54 1549.24 46.74C1544.56 41.94 1538.02 39 1530.89 39Z" fill="#5159A7"/>
<path d="M1272.47 212.3L1272.54 212.23C1272.51 212.83 1272.41 213.45 1272.41 214.05V314.7H1275.51C1280.71 314.31 1291.53 312.41 1300.67 303.64C1300.38 304.01 1313.35 293.61 1314.14 275.02V205.66C1314.14 195 1315.53 186.39 1317.94 179.54C1321.58 169.26 1327.29 162.89 1334.76 158.69C1342.24 154.52 1351.75 152.66 1362.6 152.67H1375.95V109.89C1375.94 109.89 1272.47 91.24 1272.47 212.3Z" fill="#5159A7"/>
<path d="M972.21 131.79C957.2 117.06 936.43 109.88 913.59 109.89C898.08 109.89 883.05 113.86 870.33 121.57C860.36 127.61 851.85 136.03 845.74 146.52C839.25 135.68 830.59 127.15 820.34 121.14C807.41 113.55 792.1 109.89 775.66 109.89C773.69 109.89 771.77 110.08 769.83 110.21C767.95 110.09 766.07 109.89 764.17 109.89C741.34 109.87 720.56 117.06 705.55 131.79C690.53 146.51 681.64 168.52 681.67 196.93V259.66V314.7C704.52 314.7 723.05 296.17 723.05 273.32V259.66V201.47C723.06 182.76 728.03 169.39 736.13 160.68C744.13 152.1 755.48 147.59 769.91 147.45C784.35 147.59 795.7 152.1 803.71 160.68C811.8 169.39 816.77 182.76 816.78 201.47V314.7C839.63 314.7 858.16 296.17 858.16 273.32V204.26C858.17 184.51 863.41 170.43 871.86 161.28C880.32 152.15 892.28 147.46 907.32 147.43C922.02 147.46 933.54 151.99 941.65 160.68C949.74 169.39 954.71 182.76 954.73 201.47V314.7C977.58 314.7 996.11 296.17 996.11 273.32V196.93C996.12 168.52 987.23 146.5 972.21 131.79Z" fill="#5159A7"/>
<path d="M1763.3 131.77C1754.25 122.94 1743.07 116.89 1730.6 113.41L1730.69 113.38C1730.43 113.31 1730.19 113.27 1729.93 113.2C1728.72 112.87 1727.49 112.61 1726.26 112.34C1724.5 111.94 1722.78 111.57 1721.07 111.25C1721.03 111.24 1720.99 111.24 1720.95 111.23C1695.24 106.37 1675.81 110.03 1667.78 112.16C1653.2 115.29 1640.15 121.74 1629.85 131.78C1614.73 146.5 1605.84 168.53 1605.87 196.93V262.84V273.33V314.71C1628.72 314.71 1647.25 296.18 1647.25 273.33V201.48C1647.27 182.79 1652.3 169.44 1660.56 160.72C1668.82 152.02 1680.64 147.46 1695.71 147.43C1696.01 147.43 1696.29 147.46 1696.58 147.47V147.43V147.47C1696.88 147.47 1697.15 147.43 1697.45 147.43C1712.52 147.46 1724.34 152.02 1732.6 160.72C1740.85 169.44 1745.89 182.78 1745.91 201.48V314.7C1768.76 314.7 1787.29 296.17 1787.29 273.32V196.93C1787.31 168.52 1778.42 146.49 1763.3 131.77Z" fill="#5159A7"/>
<path d="M1180.56 254.58L1180.47 254.61C1177.14 261.57 1172.33 267.51 1165.9 271.98C1157.83 277.58 1147.21 280.99 1133.73 281C1118.57 280.99 1104.91 276.05 1094.74 266.8C1085.59 258.45 1079.16 246.52 1077.1 230.89H1184.25C1184.25 230.89 1234.05 228.79 1229.07 188.9C1229.03 188.65 1229.01 188.38 1228.97 188.13C1228.87 187.43 1228.73 186.71 1228.6 185.99C1225.03 167.2 1216.58 150.63 1204.02 137.84C1187.03 120.5 1162.65 110.22 1133.73 110.24C1104.68 110.22 1079.58 120.2 1061.9 138.32C1044.2 156.42 1034.1 182.44 1034.12 213.69C1034.1 245.15 1044.58 271.34 1062.43 289.54C1080.27 307.76 1105.33 317.85 1133.73 317.84C1158.42 317.85 1179.12 310.72 1194.87 298.86C1209.89 287.55 1220.3 271.99 1225.71 254.58H1180.56ZM1095.14 160.75C1104.94 151.83 1117.89 147.09 1132.34 147.07C1147.63 147.07 1161.53 151.84 1171.49 160.62C1180.58 168.67 1186.57 180.05 1187.57 195.09H1077.61C1080.05 180.17 1086.39 168.74 1095.14 160.75Z" fill="#5159A7"/>
</svg>
